<svg width="13" height="13" viewBox="0 0 13 13" fill="none" xmlns="http://www.w3.org/2000/svg">
<path d="M8.125 10.2917C8.125 9.09458 6.67008 8.125 4.875 8.125C3.07992 8.125 1.625 9.09458 1.625 10.2917M10.2917 8.66666V7.04166M10.2917 7.04166V5.41666M10.2917 7.04166H8.66667M10.2917 7.04166H11.9167M4.875 6.5C4.30036 6.5 3.74926 6.27172 3.34294 5.8654C2.93661 5.45907 2.70833 4.90797 2.70833 4.33333C2.70833 3.75869 2.93661 3.20759 3.34294 2.80127C3.74926 2.39494 4.30036 2.16666 4.875 2.16666C5.44964 2.16666 6.00074 2.39494 6.40706 2.80127C6.81339 3.20759 7.04167 3.75869 7.04167 4.33333C7.04167 4.90797 6.81339 5.45907 6.40706 5.8654C6.00074 6.27172 5.44964 6.5 4.875 6.5Z" stroke="black" stroke-linecap="round" stroke-linejoin="round"/>
</svg>
